<svg width="40" height="40" viewBox="0 0 100 100" fill="none" xmlns="http://www.w3.org/2000/svg">
<rect width="100" height="100" rx="26" fill="url(#paint0_linear_17_84)"/>
<path d="M35.8789 29.4902C35.8789 28.4941 36.2695 27.5664 37.0508 26.707C37.8516 25.8281 38.9258 25.0664 40.2734 24.4219C41.6406 23.7773 43.2324 23.2695 45.0488 22.8984C46.8848 22.5273 48.8281 22.3418 50.8789 22.3418C52.9492 22.3418 54.8926 22.5273 56.709 22.8984C58.5449 23.2695 60.1465 23.7773 61.5137 24.4219C62.8809 25.0664 63.9551 25.8281 64.7363 26.707C65.5176 27.5664 65.9082 28.4941 65.9082 29.4902C65.9082 30.4668 65.5176 31.3848 64.7363 32.2441C63.9551 33.1035 62.8809 33.8555 61.5137 34.5C60.1465 35.1445 58.5449 35.6523 56.709 36.0234C54.8926 36.3945 52.9492 36.5801 50.8789 36.5801C48.8281 36.5801 46.8848 36.3945 45.0488 36.0234C43.2324 35.6523 41.6406 35.1445 40.2734 34.5C38.9258 33.8555 37.8516 33.1035 37.0508 32.2441C36.2695 31.3848 35.8789 30.4668 35.8789 29.4902ZM24.3945 69.2461C27.0898 69.1484 29.3555 68.8066 31.1914 68.2207C33.0469 67.6348 34.541 66.8242 35.6738 65.7891C36.8262 64.7539 37.6562 63.4941 38.1641 62.0098C38.6719 60.5254 38.9258 58.8262 38.9258 56.9121C38.9258 54.959 38.6719 53.2891 38.1641 51.9023C37.6562 50.4961 36.8555 49.3535 35.7617 48.4746C34.668 47.5762 33.2617 46.9219 31.543 46.5117C29.8438 46.1016 27.7832 45.8965 25.3613 45.8965V43.1426L64.6777 40.5059V56.9121C64.6777 58.8262 64.8438 60.5254 65.1758 62.0098C65.5078 63.4941 66.1328 64.7539 67.0508 65.7891C67.9883 66.8242 69.2773 67.6348 70.918 68.2207C72.5781 68.8066 74.7266 69.1484 77.3633 69.2461V72H24.3945V69.2461Z" fill="#F9F9F9"/>
<defs>
<linearGradient id="paint0_linear_17_84" x1="26.25" y1="16.25" x2="92.5" y2="82.5" gradientUnits="userSpaceOnUse">
<stop stop-color="#D32727"/>
<stop offset="0.322917" stop-color="#A112B9"/>
<stop offset="0.817708" stop-color="#1915F9"/>
<stop offset="1" stop-color="#1555F9"/>
</linearGradient>
</defs>
</svg>
